Coordinates
version=1
nRows=12
nColumns=42
inDegrees=yes

Units are S.I. units (second, meters, Newtons, ...)
If the header above contains a line with 'inDegrees', this indicates whether rotational values are in degrees (yes) or radians (no).

endheader
time	pelvis_tilt	pelvis_list	pelvis_rotation	pelvis_tx	pelvis_ty	pelvis_tz	hip_flexion_r	hip_adduction_r	hip_rotation_r	knee_angle_r	knee_adduction_r	knee_angle_r_beta	ankle_angle_r	subtalar_angle_r	mtp_angle_r	hip_flexion_l	hip_adduction_l	hip_rotation_l	knee_angle_l	knee_adduction_l	knee_angle_l_beta	ankle_angle_l	subtalar_angle_l	mtp_angle_l	lumbar_extension	lumbar_bending	lumbar_rotation	arm_flex_r	arm_add_r	arm_rot_r	elbow_flex_r	pro_sup_r	wrist_flex_r	wrist_dev_r	arm_flex_l	arm_add_l	arm_rot_l	elbow_flex_l	pro_sup_l	wrist_flex_l	wrist_dev_l
      0.00000000	      2.73057832	     -2.01816741	     -5.79204599	     -1.38091549	      1.00319832	     -0.23645841	    -16.45896517	      0.61390909	      3.84520904	      6.01589172	     10.65387312	      0.10499712	     13.09612240	      8.15192300	     -9.45560265	     20.81918497	    -12.46638724	    -11.02856006	     15.40180508	     11.88851371	      0.26881221	      1.62501964	     -6.26891220	     -9.45560265	    -13.96847310	     -1.65972362	     12.10068033	     16.44339062	    -19.29487896	     -4.59054916	     35.77176045	     90.00000001	      0.00000000	      0.00000000	    -14.46492487	    -13.86809650	     -5.63934407	     16.71875275	     90.00000001	      0.00000000	      0.00000000
      0.01000000	      2.37067627	     -2.41533368	     -6.15354697	     -1.36800609	      1.00020110	     -0.23622999	    -16.77218678	      0.96869155	      4.18950623	      6.33492931	     10.53109115	      0.11056537	     13.46353095	      8.17432753	     -9.41887570	     21.21559906	    -13.04790959	    -11.65458724	     12.74852602	     12.34174903	      0.22250375	      1.40973558	     -4.65810456	     -9.41887570	    -13.67485833	     -1.34571955	     12.47407718	     17.31143372	    -19.69166969	     -3.95023800	     36.36188268	     90.00000001	      0.00000000	      0.00000000	    -15.15704868	    -13.73989388	     -5.82026798	     16.81168547	     90.00000001	      0.00000000	      0.00000000
      0.02000000	      2.04669083	     -2.66471700	     -6.50220739	     -1.35454316	      0.99719772	     -0.23582062	    -17.17522135	      1.20366876	      4.42430020	      6.60317779	     10.32624469	      0.11524719	     13.76791641	      8.12734640	     -9.39192469	     21.55763619	    -13.54950812	    -12.39238408	     10.48259327	     12.93064306	      0.18295577	      1.15188681	     -3.19657362	     -9.39192469	    -13.35169855	     -1.22877499	     12.77524222	     18.05722934	    -19.99304814	     -3.28807219	     36.84552539	     90.00000001	      0.00000000	      0.00000000	    -15.83527697	    -13.67192835	     -6.03902200	     16.86342964	     90.00000001	      0.00000000	      0.00000000
      0.03000000	      2.34780417	     -2.63996131	     -7.10208100	     -1.34069685	      0.99509563	     -0.23577803	    -18.30490984	      0.82618967	      5.28009638	      6.62453834	     10.37725323	      0.11562001	     13.83785878	      7.68171330	     -9.30265315	     21.03383095	    -13.60283697	    -13.58363826	      8.40159193	     13.19805303	      0.14663544	      1.37330847	     -1.34459575	     -9.30265315	    -13.69874015	     -1.47300657	     13.13632921	     18.85413745	    -20.40771229	     -2.13903176	     37.48593422	     90.00000001	      0.00000000	      0.00000000	    -16.34874134	    -13.40071832	     -7.00373736	     16.71918590	     90.00000001	      0.00000000	      0.00000000
      0.04000000	      2.28718084	     -2.71004904	     -7.55489346	     -1.32680989	      0.99263566	     -0.23553323	    -18.98821144	      0.72945541	      5.99609838	      6.83191131	     10.26205438	      0.11923935	     13.84114105	      7.10178348	     -9.18221001	     21.11943169	    -13.84341055	    -14.60165946	      7.13525887	     13.54482829	      0.12453376	      1.64159332	      0.45140196	     -9.18221001	    -13.62508030	     -1.59150106	     13.38044022	     19.55829237	    -20.61941235	     -1.32306925	     37.81782023	     90.00000001	      0.00000000	      0.00000000	    -16.79847636	    -13.18702988	     -7.93376086	     16.48337524	     90.00000001	      0.00000000	      0.00000000
      0.05000000	      2.08767479	     -2.76330556	     -7.89543135	     -1.31290362	      0.99011103	     -0.23521573	    -19.40046278	      0.71829501	      6.35380867	      7.32915408	     10.02511544	      0.12791787	     13.95225844	      6.99901769	     -9.16238632	     21.38529469	    -14.02988653	    -14.93385592	      6.20125914	     13.86924915	      0.10823239	      1.67185683	      1.19483366	     -9.16238632	    -13.39024305	     -1.71588087	     13.52898598	     20.16815150	    -20.70871855	     -0.74462355	     38.03512656	     90.00000001	      0.00000000	      0.00000000	    -17.30361700	    -13.11538310	     -8.11034631	     16.45140795	     90.00000001	      0.00000000	      0.00000000
      0.06000000	      2.22785065	     -2.60243502	     -8.40249651	     -1.29879164	      0.98821109	     -0.23523227	    -20.09258723	      0.23723923	      6.94521391	      7.87489765	     10.00657616	      0.13744289	     13.95664425	      6.75929982	     -9.12753865	     21.20981687	    -13.85844229	    -15.44363857	      5.63749768	     13.88916652	      0.09839290	      1.83940127	      1.80007431	     -9.12753865	    -13.51292870	     -2.10984312	     13.74646336	     20.71437770	    -20.91263583	      0.18195789	     38.37305426	     90.00000001	      0.00000000	      0.00000000	    -17.67571129	    -12.92395208	     -8.65735839	     16.36622106	     90.00000001	      0.00000000	      0.00000000
      0.07000000	      2.38365567	     -2.26459987	     -8.81490726	     -1.28433180	      0.98646433	     -0.23532470	    -20.78200979	     -0.39136940	      7.45656154	      8.42218003	      9.93091040	      0.14699477	     13.81720985	      6.42324916	     -9.08936752	     21.09569446	    -13.46210514	    -15.80358709	      5.62222018	     13.84935360	      0.09812625	      1.92588812	      1.96262631	     -9.08936752	    -13.58832103	     -2.69848153	     13.88676772	     21.04333156	    -21.00505317	      0.81351370	     38.74716327	     90.00000001	      0.00000000	      0.00000000	    -17.89091711	    -12.79167288	     -9.28544635	     16.10650808	     90.00000001	      0.00000000	      0.00000000
      0.08000000	      2.60760160	     -1.85443684	     -9.15545752	     -1.26946332	      0.98501618	     -0.23559909	    -21.58448743	     -1.12072341	      8.13421159	      8.84422095	      9.89859866	      0.15436078	     13.43866327	      5.81667231	     -8.99068156	     20.88069190	    -12.89773929	    -15.79993597	      5.86915243	     13.71264527	      0.10243603	      1.79434223	      1.64896934	     -8.99068156	    -13.69328305	     -3.36172658	     13.95754588	     21.21595960	    -21.02052531	      1.15519028	     39.11867133	     90.00000001	      0.00000000	      0.00000000	    -17.84381853	    -12.58765847	    -10.62976118	     15.50627907	     90.00000001	      0.00000000	      0.00000000
      0.09000000	      2.71340231	     -1.47668734	     -9.46399641	     -1.25450375	      0.98356137	     -0.23582989	    -22.07226658	     -1.75511190	      8.50644891	      9.69347032	      9.81036707	      0.16918297	     13.07929719	      5.51163771	     -8.96192058	     20.89231558	    -12.42816438	    -15.69935671	      6.67071739	     13.62870653	      0.11642598	      1.48066800	      0.97822712	     -8.96192058	    -13.66421362	     -3.97710384	     14.03959807	     21.21142314	    -21.03106903	      1.46749397	     39.52831113	     90.00000001	      0.00000000	      0.00000000	    -17.96085317	    -12.53824205	    -10.83865328	     15.32649962	     90.00000001	      0.00000000	      0.00000000
      0.10000000	      2.90012702	     -0.98756572	     -9.74737956	     -1.23918472	      0.98240439	     -0.23623921	    -22.58775960	     -2.54259566	      8.82204770	     10.62320673	      9.77266105	      0.18540993	     12.53273748	      5.13118477	     -8.93529609	     20.77917951	    -11.78288913	    -15.47488718	      7.63627154	     13.49324625	      0.13327808	      0.82975726	      0.08536538	     -8.93529609	    -13.66898047	     -4.70060641	     14.09911428	     21.03162107	    -21.02155867	      1.65127053	     39.98761982	     90.00000001	      0.00000000	      0.00000000	    -17.98200769	    -12.49297110	    -11.11891451	     15.10794460	     90.00000001	      0.00000000	      0.00000000
      0.11000000	      3.10268717	     -0.39147059	    -10.00086767	     -1.22359451	      0.98155375	     -0.23682880	    -23.02985067	     -3.44973693	      9.10945046	     11.67966525	      9.78306522	      0.20384861	     11.77834593	      4.63206926	     -8.90538145	     20.58443023	    -10.98459538	    -15.07722808	      8.61704059	     13.34774307	      0.15039573	     -0.25776974	     -1.03238128	     -8.90538145	    -13.65186756	     -5.53021087	     14.10785039	     20.69325420	    -20.95856525	      1.74036140	     40.46185809	     90.00000001	      0.00000000	      0.00000000	    -17.89491159	    -12.43143012	    -11.49735135	     14.81580728	     90.00000001	      0.00000000	      0.00000000
